<?xml version="1.0" standalone="no"?>
<!DOCTYPE svg PUBLIC "-//W3C//DTD SVG 20010904//EN"
 "http://www.w3.org/TR/2001/REC-SVG-20010904/DTD/svg10.dtd">
<svg version="1.0" xmlns="http://www.w3.org/2000/svg"
 width="512.000000pt" height="512.000000pt" viewBox="0 0 512.000000 512.000000"
 preserveAspectRatio="xMidYMid meet">
<metadata>
Created by potrace 1.14, written by Peter Selinger 2001-2017
</metadata>
<g transform="translate(0.000000,512.000000) scale(0.100000,-0.100000)"
fill="#000000" stroke="none">
<path d="M1957 4561 c-13 -65 -8 -243 9 -303 16 -55 54 -108 78 -108 6 0 22
-33 35 -72 39 -119 151 -491 151 -502 0 -14 -93 -150 -110 -160 -8 -5 -74 -67
-147 -139 l-132 -130 -39 34 c-35 31 -72 90 -72 116 0 6 -7 16 -15 23 -8 7
-15 19 -15 27 0 32 -57 102 -107 132 -49 30 -93 73 -93 92 0 28 125 61 176 47
30 -8 41 -6 71 14 34 23 34 24 29 78 -7 66 -23 82 -104 105 -66 19 -169 74
-197 105 -11 12 -38 33 -60 46 -26 15 -45 35 -53 57 -16 43 -70 93 -165 151
-81 50 -107 83 -107 136 0 16 -4 30 -10 30 -30 0 -40 -97 -16 -154 8 -18 31
-50 52 -71 l38 -38 -44 6 c-24 3 -55 14 -69 24 -32 24 -71 98 -71 135 0 19 -5
28 -16 28 -14 0 -16 -10 -12 -67 5 -72 30 -134 67 -168 12 -10 38 -50 58 -87
28 -54 45 -74 85 -98 42 -26 49 -35 44 -53 -20 -68 -25 -135 -15 -205 12 -85
47 -214 84 -304 29 -70 31 -110 10 -188 -8 -30 -18 -82 -21 -115 -5 -43 -18
-80 -46 -130 -59 -104 -105 -221 -134 -342 -30 -122 -31 -125 -89 -205 -52
-70 -79 -148 -101 -288 -18 -121 -41 -165 -92 -180 -44 -12 -101 -56 -101 -78
0 -9 -3 -29 -7 -44 -4 -18 -2 -28 5 -28 6 0 11 -6 11 -14 0 -7 7 -20 16 -27
15 -12 16 -10 10 21 l-7 35 20 -25 21 -25 0 45 1 45 16 -35 c8 -19 17 -30 18
-25 2 6 6 23 9 38 4 16 24 47 46 71 47 51 75 114 92 204 l12 67 8 -59 c5 -37
23 -91 48 -141 58 -117 55 -137 -37 -237 -25 -27 -43 -57 -43 -70 0 -13 18
-65 40 -116 47 -108 105 -295 115 -369 12 -88 2 -109 -67 -144 -75 -38 -148
-104 -148 -134 0 -28 33 -71 71 -90 19 -11 29 -23 29 -39 0 -35 40 -87 84
-110 91 -46 362 -25 485 39 49 25 57 53 32 110 -12 27 -19 51 -15 54 3 3 56 6
117 5 128 0 236 -19 552 -97 202 -50 215 -52 350 -52 136 0 147 2 375 57 129
31 276 65 325 74 89 18 307 25 320 12 4 -4 -3 -28 -15 -53 -19 -38 -21 -51
-11 -71 37 -82 411 -137 526 -78 44 23 85 75 85 108 0 14 12 29 30 40 121 71
84 144 -129 251 -117 58 -191 115 -191 146 0 21 29 99 37 99 3 0 23 -14 44
-31 51 -40 52 -18 4 50 -19 26 -35 59 -35 72 0 13 19 130 42 259 22 129 41
249 41 265 1 17 -7 57 -16 90 -9 32 -17 88 -17 123 0 35 -8 93 -17 128 -20 73
-13 88 34 78 29 -6 30 -7 25 -56 -5 -48 -4 -51 17 -45 17 4 21 1 21 -17 0 -29
10 -39 27 -25 10 9 13 6 13 -15 0 -37 28 -33 46 7 l15 32 -6 -34 c-22 -134
-15 -177 20 -129 16 23 17 22 9 -12 -17 -81 1 -105 36 -48 l21 33 -7 -35 c-21
-95 6 -117 44 -37 12 26 27 47 32 47 8 0 -16 -102 -39 -161 -10 -29 1 -55 19
-44 6 4 20 21 31 39 l19 31 -2 -35 c-4 -51 22 -46 49 10 40 82 54 279 32 449
-18 133 -66 323 -106 414 -52 120 -112 207 -211 308 -113 113 -173 144 -284
144 -72 0 -82 -3 -167 -47 -108 -57 -157 -68 -194 -43 -34 22 -44 72 -23 113
9 17 74 82 144 146 149 132 178 164 205 226 26 58 28 187 4 244 -10 21 -17 40
-17 41 0 1 56 4 125 7 69 3 128 7 130 10 5 4 -6 60 -19 103 -4 14 -24 56 -40
83 -21 36 -100 106 -147 129 -60 31 -152 50 -223 46 -32 -1 -60 -4 -61 -5 -2
-2 8 -41 21 -88 14 -47 28 -111 31 -142 6 -55 5 -58 -16 -58 -30 0 -77 -25
-95 -52 -9 -12 -16 -39 -16 -59 0 -34 -3 -38 -40 -53 -22 -9 -47 -16 -55 -16
-18 0 -72 -46 -63 -55 3 -4 54 -7 112 -8 58 -1 106 -4 106 -6 0 -2 -13 -19
-30 -38 -38 -42 -38 -75 -3 -103 21 -16 38 -21 70 -18 24 2 43 1 43 -2 0 -10
-90 -74 -180 -130 -128 -79 -186 -132 -217 -200 l-28 -58 -36 106 c-44 132
-95 238 -167 345 -30 45 -54 89 -54 98 1 19 75 270 134 450 30 92 46 128 61
135 32 14 58 57 73 120 14 60 17 234 5 289 l-6 30 -53 -65 c-62 -77 -131 -210
-139 -267 -3 -27 0 -52 10 -72 13 -27 13 -36 0 -83 -19 -66 -132 -448 -139
-467 -2 -8 -36 18 -92 73 -48 47 -114 106 -147 130 l-59 44 -45 -31 c-25 -18
-89 -74 -143 -126 -54 -52 -100 -92 -102 -90 -3 3 -119 392 -146 488 -7 26 -5
41 6 64 35 67 -28 219 -154 366 l-29 35 -6 -33z m94 -104 c56 -81 89 -159 89
-212 0 -61 -14 -64 -35 -7 -32 86 -88 202 -97 202 -9 0 -4 -45 23 -180 10 -52
16 -96 14 -98 -10 -11 -54 54 -65 96 -17 67 -24 179 -15 248 l7 58 19 -25 c11
-13 38 -50 60 -82z m1144 -87 c-7 -94 -28 -160 -60 -190 -30 -28 -30 -32 -6
88 27 139 31 172 20 172 -10 0 -27 -36 -84 -174 -30 -74 -33 -78 -45 -57 -24
46 22 162 114 286 l51 69 8 -59 c4 -33 5 -94 2 -135z m-70 -42 c-11 -69 -47
-222 -54 -230 -3 -4 -16 -5 -28 -2 l-21 6 19 56 c25 74 82 212 87 212 2 0 1
-19 -3 -42z m-1014 -151 c21 -59 22 -69 9 -77 -8 -5 -19 -8 -25 -7 -11 4 -51
152 -59 224 l-6 48 29 -60 c15 -33 39 -91 52 -128z m-1007 27 c11 -27 7 -37
-9 -24 -16 14 -20 40 -6 40 5 0 12 -7 15 -16z m76 -75 c0 -10 -4 -19 -9 -19
-14 0 -33 28 -27 39 10 16 36 1 36 -20z m-162 -27 c3 -9 -2 -13 -14 -10 -9 1
-19 9 -22 16 -3 9 2 13 14 10 9 -1 19 -9 22 -16z m246 -17 c-8 -19 -34 -7 -34
16 0 16 3 18 20 9 11 -6 17 -17 14 -25z m2430 13 c3 2 12 0 19 -6 8 -7 16 -10
19 -7 7 7 108 -31 129 -49 11 -9 22 -16 25 -16 10 0 73 -74 68 -81 -2 -4 1
-11 8 -16 18 -11 51 -85 62 -135 6 -26 4 -28 -26 -29 -18 0 -75 -2 -127 -4
-90 -4 -94 -3 -130 25 -20 15 -55 34 -78 41 -24 7 -43 13 -43 14 0 23 -35 173
-49 212 l-19 52 37 3 c20 2 50 0 68 -3 18 -4 34 -4 37 -1z m-2590 -37 c3 -4
-6 -13 -20 -20 -26 -12 -64 0 -64 19 0 12 77 13 84 1z m236 -37 c0 -7 -4 -15
-9 -19 -14 -8 -34 33 -26 53 6 15 8 15 21 -2 8 -11 14 -25 14 -32z m-126 17
c8 -12 -40 -31 -77 -31 l-32 0 25 20 c26 20 75 27 84 11z m73 -47 c2 -6 -8
-16 -23 -23 -21 -9 -29 -9 -41 1 -13 10 -12 14 4 25 20 15 55 14 60 -3z m-174
-35 c12 -10 38 -31 58 -48 20 -17 49 -35 65 -41 26 -10 27 -12 11 -22 -23 -12
-75 -3 -106 18 -22 16 -81 100 -81 116 0 10 27 -1 53 -23z m317 -129 c0 -5 -4
-10 -9 -10 -6 0 -13 5 -16 10 -3 6 1 10 9 10 9 0 16 -4 16 -10z m304 -51 c33
-26 34 -45 1 -23 -28 18 -41 14 -32 -10 3 -8 18 -16 34 -18 23 -2 29 -8 31
-34 l3 -32 -48 5 c-59 6 -97 23 -101 44 -2 9 7 32 20 52 27 42 53 47 92 16z
m886 -69 c45 -23 73 -25 120 -8 32 11 35 9 69 -28 l36 -39 -45 -6 c-25 -3 -61
-13 -80 -22 -32 -14 -37 -14 -72 4 -46 23 -95 24 -149 2 -36 -14 -46 -14 -73
-3 -17 7 -50 15 -74 19 l-44 6 35 40 c32 37 36 39 61 27 38 -17 85 -14 126 8
44 24 43 24 90 0z m1113 -28 c16 -14 16 -16 -3 -29 -21 -15 -17 -43 6 -43 21
0 17 -18 -7 -31 -31 -16 -102 -6 -138 21 -30 20 -33 21 -56 6 -16 -11 -45 -16
-87 -15 l-63 2 62 7 c34 4 68 12 76 18 8 7 18 8 22 4 5 -4 5 1 2 10 -7 20 22
33 69 29 24 -2 33 3 42 24 10 21 17 25 35 19 12 -3 30 -13 40 -22z m-113 8 c0
-5 -4 -10 -10 -10 -5 0 -10 5 -10 10 0 6 5 10 10 10 6 0 10 -4 10 -10z m-104
-31 c16 -17 16 -22 4 -29 -8 -6 -22 -10 -30 -10 -13 0 -13 1 0 10 12 8 11 11
-8 16 -18 5 -20 9 -11 20 15 19 23 18 45 -7z m-1776 -13 c0 -21 -32 -28 -65
-16 -34 13 -84 4 -155 -27 -30 -13 -65 -22 -77 -20 -13 2 -23 0 -23 -4 0 -5
15 -9 33 -9 25 0 36 -6 49 -27 9 -16 35 -39 58 -53 23 -14 51 -32 63 -42 22
-16 22 -16 -8 -12 -29 4 -29 4 -5 -6 29 -13 80 -59 80 -73 0 -5 -11 -6 -24 -3
-14 3 -28 2 -31 -4 -3 -5 3 -10 14 -10 29 0 50 -10 61 -29 7 -15 5 -17 -21
-13 -18 3 -29 0 -29 -8 0 -7 7 -10 15 -6 23 9 44 -4 61 -35 20 -39 0 -39 -46
1 -36 30 -60 38 -60 20 0 -28 -22 -2 -61 73 -26 50 -64 103 -98 138 -31 30
-66 72 -78 92 l-22 37 38 0 c20 0 68 11 107 24 83 29 224 36 224 12z m1707
-28 c-7 -4 -27 -8 -45 -8 -18 0 -42 -5 -53 -10 -13 -7 -19 -7 -19 0 0 5 1 10
3 10 1 0 27 9 57 19 38 13 57 15 62 7 4 -6 2 -14 -5 -18z m-1057 -98 c50 -25
79 -25 140 1 l48 21 41 -21 c51 -27 80 -26 142 1 l51 21 44 -21 c25 -12 56
-22 69 -22 17 0 32 -11 50 -37 14 -21 25 -41 25 -45 0 -14 -94 -8 -120 7 -14
8 -45 14 -70 14 -25 0 -56 -6 -70 -14 -32 -19 -61 -19 -96 0 -38 20 -88 19
-146 -2 -45 -16 -50 -16 -83 0 -43 21 -111 21 -145 2 -26 -15 -120 -21 -120
-7 0 22 53 82 73 82 12 0 40 9 62 19 52 25 58 25 105 1z m1207 -158 c-15 -15
-27 -31 -27 -35 0 -11 -73 -75 -100 -88 -37 -17 -133 -128 -126 -146 3 -8 -1
-24 -9 -36 -19 -27 -19 -87 0 -113 17 -23 19 -38 4 -28 -7 4 -10 1 -7 -6 2 -7
12 -14 22 -16 25 -4 53 -31 65 -65 14 -40 7 -36 -29 17 -39 55 -49 52 -20 -6
28 -54 19 -62 -14 -13 l-26 38 0 -30 c-1 -25 -2 -27 -11 -12 -5 9 -14 36 -19
60 l-9 42 1 -50 c0 -27 0 -59 -2 -70 -2 -17 -3 -17 -10 5 -4 14 -9 41 -10 60
-2 32 -2 33 -9 10 -12 -39 -38 -85 -57 -101 -17 -13 -17 -13 -1 11 29 45 47
108 37 133 -8 20 -9 20 -9 -9 -1 -20 -11 -40 -32 -60 l-31 -29 20 35 c11 19
23 46 27 58 l7 24 -29 -19 -28 -18 23 29 c12 16 22 37 22 47 0 10 5 21 11 25
8 4 7 9 -2 15 -11 6 -10 11 3 26 8 10 21 34 27 54 12 38 43 71 106 113 41 27
61 33 50 16 -3 -6 1 -7 9 -4 9 3 14 10 11 15 -3 4 18 23 47 42 29 19 73 51 98
71 54 43 63 46 27 8z m-1206 -32 c56 -25 82 -25 137 1 l44 22 44 -22 c56 -26
83 -26 145 0 l50 22 49 -23 c48 -23 109 -24 176 -5 18 6 24 -1 42 -44 l21 -51
-524 0 -524 0 18 41 c26 56 31 60 71 49 52 -15 100 -12 145 9 51 25 55 25 106
1z m-376 -160 c-8 -24 -20 -49 -27 -57 -6 -7 -12 -28 -14 -46 -1 -17 -9 -64
-18 -103 -8 -39 -18 -101 -22 -138 l-7 -66 -43 66 c-37 57 -41 68 -33 93 6 16
21 33 34 39 25 12 85 86 85 106 0 6 -15 -12 -33 -39 -18 -28 -41 -51 -52 -53
-18 -2 -20 2 -17 38 3 24 9 40 17 40 17 0 89 81 117 132 27 48 33 43 13 -12z
m-217 3 c59 -56 76 -140 47 -228 l-13 -40 -1 69 c-1 85 -26 143 -82 187 -45
35 -49 49 -14 49 14 0 40 -15 63 -37z m791 -115 c1 -36 -3 -48 -14 -48 -17 0
-20 44 -8 126 l7 49 7 -40 c5 -22 8 -61 8 -87z m-1032 72 c24 0 63 -42 63 -69
0 -15 11 -42 25 -61 32 -43 32 -75 0 -96 -21 -14 -32 -15 -73 -5 -26 7 -57 19
-69 27 -29 18 -31 54 -3 54 14 0 20 7 20 23 0 12 -9 28 -20 35 -24 15 -25 37
-4 87 14 35 16 36 33 21 10 -9 22 -16 28 -16z m955 -20 c9 -14 18 -43 20 -65
3 -36 0 -40 -21 -43 -22 -3 -23 -1 -19 35 3 23 -1 47 -9 60 -9 14 -12 31 -7
45 5 17 8 19 13 8 3 -8 14 -26 23 -40z m173 0 c0 -27 -6 -55 -13 -62 -6 -6
-12 -22 -12 -34 0 -17 -4 -21 -20 -17 -26 7 -26 47 0 73 11 11 17 26 14 34 -6
15 12 56 24 56 4 0 7 -22 7 -50z m-225 -95 c10 -19 11 -28 3 -36 -11 -11 -41
35 -63 99 -10 26 -9 26 18 -6 16 -18 35 -44 42 -57z m290 60 c-21 -55 -51
-105 -60 -100 -17 10 -11 28 25 78 39 53 49 59 35 22z m98 -12 c-9 -10 -19
-28 -23 -41 -3 -12 -19 -29 -34 -37 -16 -8 -31 -24 -34 -36 -5 -19 -8 -20 -21
-9 -9 7 -16 19 -16 28 0 22 30 52 51 52 10 0 24 10 30 23 14 25 28 37 48 37
12 0 11 -3 -1 -17z m-495 -31 c15 -6 27 -18 27 -27 0 -8 12 -22 26 -31 22 -15
23 -19 11 -32 -22 -22 -57 -6 -64 29 -3 16 -15 35 -27 41 -25 13 -36 27 -36
47 0 12 3 12 18 -1 9 -8 29 -19 45 -26z m322 -65 c160 -91 125 -338 -54 -376
-182 -39 -319 162 -214 314 57 81 182 111 268 62z m-345 -24 c47 -20 59 -30
54 -42 -4 -9 -12 -30 -18 -48 -10 -29 -13 -31 -54 -28 -23 1 -51 10 -61 19 -9
9 -29 16 -43 16 -14 0 -32 8 -41 18 -15 16 -12 17 36 16 29 0 61 -6 73 -13 15
-10 31 -11 59 -5 l38 9 -57 38 c-50 33 -65 47 -52 47 3 0 32 -12 66 -27z m560
23 c0 -3 -25 -23 -57 -45 -38 -28 -50 -41 -37 -41 11 0 30 7 42 16 15 10 32
13 53 9 18 -4 36 -2 44 5 7 6 26 10 42 8 l28 -4 -25 -11 c-14 -6 -32 -18 -40
-28 -9 -11 -22 -14 -37 -10 -17 4 -34 -3 -58 -22 l-35 -28 27 -6 c16 -4 62 -8
103 -9 41 -1 86 -5 100 -9 20 -6 15 -9 -30 -14 -30 -4 -88 -7 -128 -7 -46 0
-71 -4 -67 -10 3 -5 23 -10 43 -10 26 0 43 -7 55 -21 11 -12 25 -18 36 -14 10
3 28 -2 41 -13 22 -18 22 -18 -32 -17 -31 0 -62 6 -70 13 -10 8 -31 10 -62 6
l-47 -7 8 29 c12 46 7 118 -12 153 -9 18 -15 35 -13 37 6 5 112 53 121 53 4 1
7 -1 7 -3z m480 -31 c7 -8 38 -23 69 -32 l56 -17 -34 -6 -35 -5 53 -25 c60
-28 76 -43 31 -30 -51 15 -112 53 -98 62 10 6 9 8 -3 8 -8 0 -28 14 -44 30
-16 17 -24 30 -18 30 6 0 16 -7 23 -15z m480 -90 c12 -22 15 -24 23 -9 8 14
12 13 33 -12 l23 -29 1 27 c0 36 24 28 41 -13 9 -22 14 -27 21 -17 11 17 37
-14 45 -54 7 -36 23 -26 23 15 1 32 1 31 27 -17 24 -47 25 -53 14 -117 -6 -37
-20 -88 -31 -114 -22 -50 -26 -85 -10 -85 6 0 7 -18 3 -46 -5 -39 -3 -49 12
-60 22 -16 35 -18 35 -5 0 5 -10 11 -21 14 -18 5 -21 11 -17 39 3 18 8 41 13
51 5 12 3 17 -9 17 -22 0 -20 13 10 89 17 42 28 93 32 144 4 70 7 78 19 62 7
-11 13 -36 13 -57 0 -41 16 -51 29 -16 7 19 9 18 23 -18 9 -21 19 -54 23 -72
8 -39 25 -33 26 11 0 30 2 29 18 -17 10 -30 20 -45 25 -38 5 8 17 0 37 -22 22
-25 36 -60 54 -132 29 -113 30 -121 10 -104 -10 9 -15 9 -15 1 0 -24 -20 -9
-34 24 -20 46 -32 44 -39 -6 -7 -51 -12 -57 -39 -40 -17 11 -22 11 -29 -1 -7
-10 -12 -10 -27 -1 -15 9 -22 9 -31 0 -10 -9 -15 -8 -25 5 -9 13 -16 14 -24 6
-8 -8 -14 -5 -21 15 -7 18 -15 24 -29 20 -13 -3 -30 6 -51 29 -17 18 -31 37
-31 42 0 4 -11 5 -24 2 -18 -4 -29 0 -43 17 -10 13 -30 27 -45 30 -15 4 -32
16 -38 26 -6 13 -17 17 -30 14 -14 -4 -29 4 -49 26 -16 17 -38 31 -50 31 -23
0 -65 41 -81 81 -7 15 -22 30 -36 33 -16 4 -35 25 -55 61 -17 30 -37 55 -45
55 -16 0 -54 39 -54 56 0 10 8 10 35 -2 44 -18 51 -18 35 1 -11 13 -8 15 13
15 56 0 59 12 10 35 -26 13 -42 24 -35 24 7 1 34 10 59 22 64 29 125 22 187
-19 26 -18 51 -32 57 -32 5 0 0 19 -12 41 l-21 42 29 -21 c16 -11 35 -32 43
-47z m-2237 -12 c16 -3 38 0 51 6 21 11 27 9 67 -27 24 -21 77 -68 118 -103
41 -35 83 -81 94 -102 l19 -38 -25 -77 c-14 -42 -28 -106 -31 -142 -4 -36 -9
-85 -13 -109 -6 -43 -6 -43 -19 -20 -7 13 -13 34 -14 47 0 13 -6 22 -15 22
-20 0 -19 7 8 39 17 21 26 51 36 123 19 134 14 147 -86 245 l-85 82 -80 7
c-63 5 -82 11 -93 27 -18 25 -9 41 19 33 11 -4 34 -9 49 -13z m741 -60 c4 -21
9 -45 11 -53 7 -22 -62 -52 -101 -44 -19 3 -34 2 -38 -5 -4 -6 -21 -11 -38
-11 l-31 0 39 27 c22 14 51 26 65 25 26 -2 79 31 79 49 0 5 -37 9 -82 10 -46
0 -103 4 -128 8 l-45 7 45 7 c25 4 72 9 105 10 33 2 72 4 86 5 24 2 28 -3 33
-35z m-664 -10 c11 3 28 -5 41 -20 19 -19 21 -27 12 -42 -43 -68 -66 -129 -73
-189 -15 -120 -58 -220 -141 -324 -27 -35 -28 -38 -10 -38 51 0 28 -43 -47
-87 -23 -14 -50 -39 -58 -56 -14 -26 -18 -28 -26 -14 -6 12 4 38 43 102 28 47
49 88 46 91 -3 3 -12 -5 -19 -18 -95 -157 -91 -146 -83 -203 11 -89 -6 -130
-86 -207 -38 -38 -65 -68 -60 -68 5 0 36 26 69 58 44 42 65 71 78 110 21 59
34 64 84 29 48 -32 72 -78 78 -152 3 -40 10 -70 20 -77 11 -9 65 -13 194 -13
166 0 181 -1 194 -19 8 -11 14 -29 14 -41 0 -12 6 -30 14 -40 11 -16 17 -17
29 -7 12 10 16 10 20 -3 4 -10 -6 -23 -31 -40 -20 -14 -40 -25 -44 -25 -5 0
-8 16 -8 37 0 35 0 36 -20 18 -11 -10 -20 -27 -20 -37 0 -15 -3 -17 -19 -8
-30 15 -43 12 -36 -9 4 -14 -1 -20 -24 -24 -17 -4 -48 -24 -70 -46 l-40 -40
-11 32 -11 32 -18 -24 -19 -24 -6 21 c-10 30 -24 28 -32 -4 l-7 -26 -12 28
c-7 16 -19 35 -28 43 -14 11 -18 11 -23 -3 -3 -9 -4 -25 -1 -36 3 -11 1 -18
-4 -14 -5 3 -9 -4 -9 -16 0 -27 -16 -17 -36 23 l-17 31 27 -17 c14 -10 26 -14
26 -9 0 13 -49 37 -57 28 -4 -4 2 -25 14 -47 25 -45 16 -54 -10 -9 -11 18 -31
33 -50 38 -43 12 -50 6 -29 -26 16 -25 16 -26 -2 -19 -21 8 -86 -9 -86 -23 0
-10 36 -20 72 -20 26 0 27 -2 17 -26 -13 -36 -4 -42 33 -21 25 15 29 15 24 2
-8 -23 24 -19 52 8 l24 22 -7 -28 c-6 -23 -5 -26 11 -21 13 4 9 -3 -10 -20
-19 -16 -57 -31 -105 -41 -75 -17 -77 -18 -147 -93 l-72 -76 -15 37 c-20 46
-117 433 -117 463 0 24 41 71 104 119 20 15 34 31 31 35 -3 4 2 13 10 20 8 7
38 43 66 81 64 86 72 139 40 243 -22 72 -20 137 5 166 7 9 22 36 33 60 11 25
45 73 75 108 61 72 129 226 141 321 9 68 43 108 76 90 12 -6 29 -9 39 -6z
m1604 -101 c4 -4 5 4 2 18 -3 14 1 39 8 55 14 30 14 29 10 -20 -3 -36 -2 -45
5 -30 9 19 10 18 11 -5 l2 -25 8 25 c7 24 7 23 15 -12 4 -21 13 -38 19 -38 7
0 17 -12 23 -27 11 -28 11 -28 13 12 l2 40 11 -45 c6 -27 12 -38 15 -27 3 14
10 8 33 -27 16 -25 31 -46 34 -46 4 0 -1 10 -9 22 -9 12 -16 34 -16 48 0 21 4
17 21 -20 13 -27 23 -40 27 -31 3 10 9 7 19 -10 l14 -24 -6 28 c-7 36 3 35 16
-3 6 -16 15 -30 21 -30 6 0 19 -11 29 -24 11 -14 35 -34 54 -46 19 -12 35 -26
35 -31 0 -13 -52 9 -78 34 -20 19 -22 19 -16 3 6 -16 4 -17 -13 -8 -11 6 -26
18 -33 27 -8 9 -31 25 -51 36 -21 10 -45 29 -53 41 -9 12 -16 18 -16 12 0 -5
6 -16 13 -23 7 -9 0 -7 -20 3 -18 9 -40 30 -48 46 -9 17 -18 30 -21 30 -2 0 0
-9 6 -20 10 -19 10 -20 -9 -8 -11 6 -25 22 -32 35 -7 12 -15 20 -19 18 -11 -7
-47 36 -60 70 -6 16 -8 41 -4 55 6 22 7 20 19 -23 6 -26 15 -51 19 -55z
m-1474 6 c70 -71 75 -85 59 -207 -13 -99 -15 -107 -52 -149 -28 -33 -35 -47
-26 -53 7 -4 17 -5 21 -3 11 7 10 1 -2 -32 -14 -36 -3 -109 21 -137 15 -18 20
-19 28 -8 6 9 11 10 15 2 14 -21 25 -10 42 42 12 34 17 76 16 122 -1 39 1 84
4 100 6 26 10 18 31 -59 45 -172 160 -401 259 -519 29 -35 30 -43 5 -50 -28
-7 -61 -66 -61 -108 0 -20 -3 -38 -6 -42 -3 -3 -31 22 -62 55 -44 46 -66 62
-97 68 -65 14 -155 28 -233 39 -95 12 -122 30 -122 78 0 21 18 103 40 184 33
120 39 151 30 174 -6 15 -8 42 -4 59 9 51 -30 71 -100 52 -25 -6 -28 -5 -18 7
23 28 63 152 72 225 7 55 19 91 45 138 20 35 40 64 44 64 5 0 28 -19 51 -42z
m-386 -9 c18 -90 -6 -182 -66 -254 -14 -16 -30 -40 -37 -52 -7 -14 -21 -23
-35 -23 -24 0 -41 24 -30 42 3 5 10 41 15 80 9 75 34 130 91 197 40 49 53 51
62 10z m956 11 c0 -9 -57 -42 -106 -60 -38 -15 -21 5 38 45 48 32 68 36 68 15z
m470 -39 c33 -29 34 -30 8 -21 -45 16 -108 50 -108 59 0 29 41 14 100 -38z
m575 -129 c103 -47 99 -44 107 -97 7 -46 95 -243 123 -275 16 -18 59 -129 52
-136 -6 -6 -132 97 -327 268 -135 117 -136 118 -148 175 -7 32 -11 99 -10 148
l3 90 75 -75 c45 -45 95 -84 125 -98z m-635 102 c8 -16 27 -41 43 -56 30 -30
39 -62 10 -36 -10 9 -28 19 -41 23 -12 3 -29 19 -37 35 -8 15 -26 31 -41 34
-25 7 -25 8 -9 26 22 24 55 13 75 -26z m-370 21 c7 -8 9 -22 6 -31 -5 -14 -4
-15 9 -4 10 9 19 10 26 3 6 -6 -5 -29 -31 -66 -23 -31 -43 -57 -46 -57 -2 0 3
17 12 38 29 68 29 66 10 59 -10 -4 -24 -7 -32 -7 -7 0 -20 -13 -29 -30 -10
-19 -23 -30 -37 -30 -19 0 -20 2 -6 18 9 9 18 26 22 37 3 11 19 28 36 37 16 9
30 24 30 33 0 19 14 19 30 0z m793 -77 c-7 -149 -3 -155 190 -322 191 -166
301 -256 312 -256 4 0 5 14 3 30 -4 27 -2 31 16 28 17 -2 22 -13 28 -58 8 -65
-3 -82 -34 -53 -13 11 -120 102 -238 203 -118 101 -225 192 -238 203 l-22 21
-29 -28 c-20 -19 -30 -24 -33 -15 -3 8 5 21 16 30 l21 17 -21 24 c-39 42 -103
188 -83 188 5 0 14 -12 19 -27 35 -97 70 -144 45 -60 -18 61 -27 147 -16 147
10 0 16 -23 27 -102 10 -75 24 -56 24 32 0 44 4 80 8 80 5 0 7 -37 5 -82z
m-510 40 c37 -94 46 -118 42 -118 -10 0 -84 113 -79 121 8 13 31 11 37 -3z
m-189 -14 c20 -8 21 -48 1 -64 -8 -7 -15 -25 -15 -40 0 -15 -8 -34 -17 -43
-17 -15 -18 -12 -18 39 0 29 6 59 13 66 7 7 12 20 12 30 0 20 1 21 24 12z
m138 -29 c-1 -17 3 -47 9 -68 10 -29 10 -40 1 -49 -9 -9 -12 -9 -12 1 0 7 -8
25 -19 39 -21 31 -32 99 -16 106 25 11 40 0 37 -29z m-73 -27 c0 -29 -3 -71
-8 -93 l-7 -40 -7 55 c-11 91 -9 130 8 130 12 0 15 -12 14 -52z m1206 -145
c11 -40 29 -80 43 -95 31 -33 16 -37 -23 -6 l-28 22 18 -27 c9 -15 21 -27 26
-27 4 0 30 -23 56 -51 47 -50 67 -79 44 -65 -6 4 0 -9 14 -30 35 -52 31 -76
-5 -27 -17 22 -42 49 -58 58 -21 14 -19 9 12 -24 22 -22 37 -43 35 -46 -12
-11 -80 60 -102 108 -14 28 -34 72 -46 97 -24 53 -36 127 -27 165 10 38 22 23
41 -52z m-220 26 c5 -14 10 -17 14 -10 4 6 22 -12 45 -45 35 -53 33 -60 -8
-25 -18 15 -18 15 -7 -6 6 -13 16 -23 20 -23 15 0 112 -121 105 -131 -3 -5 2
-19 10 -31 34 -49 13 -46 -35 4 -44 46 -46 47 -15 9 43 -54 39 -67 -8 -22 -33
32 -73 101 -79 137 -2 10 -11 34 -21 53 -26 50 -46 111 -36 111 5 0 12 -10 15
-21z m-766 -78 c31 -17 18 -27 -53 -40 -108 -20 -388 -9 -429 16 -15 9 9 25
50 34 63 13 404 5 432 -10z m691 -217 c160 -138 257 -214 268 -212 14 3 17 13
14 63 -8 165 -7 266 3 250 6 -10 34 -54 63 -99 63 -96 74 -118 107 -215 l25
-74 -20 -111 c-11 -61 -29 -183 -41 -271 -21 -153 -23 -160 -53 -188 -80 -75
-178 -68 -286 20 -3 3 3 9 12 14 11 6 16 23 16 58 1 42 -3 52 -25 66 -16 11
-36 15 -55 11 l-29 -6 35 44 c20 24 36 51 36 60 0 9 -16 33 -35 53 -45 47
-107 57 -126 21 -7 -13 -20 -29 -30 -36 -21 -15 -17 -65 8 -94 10 -11 11 -18
3 -23 -19 -12 -37 2 -43 35 -8 35 -26 36 -42 2 -5 -12 -15 -22 -22 -22 -15 0
-17 16 -3 25 15 9 12 111 -2 123 -7 5 -33 12 -58 16 -64 9 -110 -14 -110 -55
0 -29 -1 -29 -42 -23 -74 12 -98 29 -98 72 0 42 -29 95 -60 112 -20 11 -19 13
25 73 96 132 176 287 220 428 12 38 27 61 48 77 18 12 35 22 40 22 4 0 120
-97 257 -216z m-1032 157 c110 -10 298 0 345 18 32 12 37 6 36 -43 -1 -23 -4
-31 -6 -18 -7 37 -20 25 -21 -21 -1 -23 -9 -63 -17 -87 -8 -25 -12 -34 -9 -20
3 14 8 51 11 83 9 87 -11 70 -30 -26 -16 -83 -44 -163 -53 -155 -2 3 2 24 10
46 25 69 39 163 27 175 -16 16 -19 8 -32 -72 -6 -41 -17 -90 -25 -110 l-14
-36 5 40 c16 117 17 162 6 170 -20 12 -24 0 -32 -92 -9 -106 -18 -151 -32
-160 -7 -4 -8 2 -3 18 4 13 10 71 13 127 5 98 5 104 -13 100 -17 -3 -20 -17
-26 -142 -4 -76 -10 -141 -13 -144 -18 -18 -23 26 -16 143 5 72 5 134 0 139
-4 5 -15 6 -23 3 -13 -5 -15 -18 -11 -74 6 -74 -5 -164 -19 -163 -5 0 -9 49
-7 113 2 121 -8 157 -34 123 -9 -12 -13 -33 -10 -55 13 -109 15 -141 6 -141
-13 0 -19 21 -26 92 -10 108 -15 128 -30 128 -31 0 -8 -153 40 -275 6 -15 5
-17 -4 -9 -17 16 -60 145 -67 201 -9 79 -14 93 -30 93 -14 0 -16 -9 -10 -60 7
-61 41 -172 70 -229 10 -18 16 -35 13 -37 -2 -2 -18 26 -35 64 -30 64 -53 147
-67 235 -7 46 -22 48 -28 5 -3 -24 -4 -18 -5 18 -2 60 2 66 35 53 13 -5 72
-13 131 -18z m-899 -121 c0 -25 0 -25 -9 -2 -5 12 -14 22 -20 22 -7 0 -7 7 1
22 12 22 12 22 20 3 4 -11 8 -31 8 -45z m-429 -6 c0 -9 11 -14 35 -14 24 0 37
-6 45 -19 15 -29 12 -83 -6 -109 -19 -28 -48 -30 -39 -3 4 14 -3 24 -29 40
-38 24 -55 76 -36 111 12 22 30 18 30 -6z m1177 -6 c-3 -7 -5 -2 -5 12 0 14 2
19 5 13 2 -7 2 -19 0 -25z m520 0 c-3 -8 -6 -5 -6 6 -1 11 2 17 5 13 3 -3 4
-12 1 -19z m-1254 -115 c13 -24 17 -58 17 -143 0 -61 4 -119 10 -129 13 -25
80 -51 133 -52 23 0 65 -6 92 -13 49 -12 46 -12 -89 -18 -189 -8 -190 -8 -197
74 -7 81 -43 148 -93 172 -19 9 -41 16 -50 16 -10 0 -16 9 -16 25 0 14 4 25
10 25 5 0 16 13 25 30 8 16 35 41 59 55 24 14 50 33 58 42 11 14 14 12 19 -18
3 -19 13 -48 22 -66z m1183 -27 c-21 -49 -28 -46 -9 4 9 22 18 38 20 36 2 -2
-3 -20 -11 -40z m-70 -5 c5 1 17 1 28 0 15 -1 16 -4 6 -16 -13 -16 -4 -39 12
-29 8 5 9 1 3 -12 -4 -10 -7 -27 -7 -36 0 -10 -3 -20 -9 -23 -5 -4 -9 -40 -9
-81 l0 -75 -37 -16 c-50 -22 -166 -22 -215 0 l-38 16 0 84 c0 69 3 86 16 91 9
4 14 13 10 21 -3 9 0 15 9 15 17 0 19 23 5 50 -7 14 -6 17 8 16 9 0 20 -10 23
-21 4 -14 13 -19 32 -18 20 1 27 -3 27 -16 0 -22 25 -45 40 -36 5 3 10 23 10
43 0 32 1 34 13 17 16 -21 37 -13 37 14 0 23 12 35 20 21 4 -6 11 -10 16 -9z
m1299 -78 c10 -38 18 -77 18 -88 -1 -11 -21 -139 -46 -285 -25 -145 -43 -267
-39 -270 10 -7 42 -58 42 -66 0 -4 -9 1 -20 11 -20 18 -21 18 -35 -1 -8 -10
-21 -44 -30 -74 -28 -98 -31 -105 -48 -108 -14 -3 -13 7 8 69 14 40 24 77 22
83 -2 5 -33 -19 -69 -52 -69 -65 -78 -71 -78 -48 0 8 29 36 65 61 36 26 65 51
65 55 0 5 -28 -4 -63 -19 -91 -41 -107 -45 -107 -28 0 9 27 22 78 36 50 15 89
34 113 54 36 31 37 34 53 157 10 69 29 194 42 278 l25 154 -25 74 c-23 68 -23
74 -7 74 14 0 22 -16 36 -67z m-1596 10 c12 -24 19 -43 16 -43 -5 0 -45 75
-45 86 0 11 6 2 29 -43z m-1191 -13 c17 0 15 -20 -3 -26 -22 -9 -65 4 -65 19
0 7 5 18 12 25 9 9 15 8 28 -3 9 -8 22 -15 28 -15z m872 -266 c36 -38 41 -46
23 -41 -16 3 -23 1 -23 -9 0 -18 -30 -18 -57 1 -12 8 -28 12 -37 9 -10 -4 -17
2 -22 20 -4 18 -16 29 -38 36 -28 9 -28 10 -4 6 16 -2 36 3 45 10 34 26 67 16
113 -32z m-1070 -30 l-23 -44 31 -77 c30 -77 50 -145 93 -312 19 -72 28 -90
69 -133 36 -38 46 -55 42 -74 -6 -32 -45 -32 -78 1 -13 13 -30 22 -37 19 -10
-4 -12 3 -9 26 2 17 -1 59 -8 93 -15 80 -93 314 -125 377 -34 68 -32 89 17
145 48 55 61 45 28 -21z m1846 -109 c35 -116 39 -135 27 -151 -12 -17 -11 -21
9 -38 13 -10 32 -37 43 -60 36 -75 86 -52 64 29 -7 23 -6 41 1 54 15 30 12 41
-14 50 -14 6 -26 21 -29 38 -4 15 -9 38 -13 50 -6 23 -6 23 30 8 46 -20 49
-19 61 8 10 22 55 37 55 18 0 -6 -6 -11 -14 -11 -8 0 -17 -7 -20 -16 -4 -12
-1 -14 14 -9 11 3 28 2 37 -4 17 -10 17 -10 -2 -11 -17 -1 -16 -4 10 -25 17
-14 48 -32 71 -41 36 -14 40 -18 36 -44 -4 -25 -7 -28 -22 -20 -23 12 -100 13
-100 2 0 -17 36 -42 69 -48 29 -6 31 -8 15 -17 -21 -11 -44 -36 -44 -49 0 -17
64 -7 86 13 46 43 60 -12 19 -73 -30 -44 -31 -58 -6 -58 15 0 24 13 37 55 15
47 22 57 48 63 28 7 32 5 42 -18 12 -27 59 -70 76 -70 6 0 8 13 6 29 -4 28 -3
29 46 34 43 4 58 1 93 -22 23 -14 43 -30 43 -36 0 -5 5 -17 10 -25 8 -13 11
-13 22 2 9 12 20 16 37 11 21 -5 22 -8 8 -18 -20 -15 -30 -56 -17 -75 8 -13
11 -13 22 0 7 8 25 26 40 39 38 33 58 16 58 -49 0 -50 23 -77 33 -39 7 26 18
24 63 -12 50 -39 87 -59 114 -59 12 0 19 -4 16 -8 -3 -5 11 -14 30 -21 30 -11
33 -15 28 -39 -16 -66 -26 -77 -88 -86 -64 -11 -117 -1 -198 37 l-48 22 26 55
25 54 -23 18 c-95 74 -305 95 -522 53 l-78 -15 -37 33 c-25 22 -55 37 -93 45
-64 15 -74 24 -103 95 -22 56 -38 68 -127 92 -99 27 -151 92 -164 208 l-7 59
74 68 c41 37 76 66 79 63 3 -2 23 -64 46 -138z m-435 73 c76 -68 78 -75 58
-167 -20 -94 -88 -158 -184 -175 -58 -11 -81 -29 -101 -83 -25 -67 -39 -80
-102 -95 -38 -8 -69 -23 -93 -45 l-36 -33 -79 15 c-117 23 -240 29 -321 16
-80 -12 -166 -42 -200 -69 l-22 -17 24 -55 23 -55 -25 -13 c-117 -63 -271 -67
-292 -9 -22 60 -21 74 5 86 14 6 22 16 19 21 -12 20 24 9 53 -15 52 -44 150
-47 139 -5 -3 13 0 20 8 20 27 0 27 22 1 49 -23 24 -25 32 -17 54 6 15 16 27
22 27 6 0 28 18 48 40 23 26 48 43 70 47 l34 6 -16 -24 c-9 -13 -17 -28 -17
-32 0 -9 39 -5 71 8 11 4 18 -1 23 -17 6 -23 6 -23 35 9 26 28 30 29 34 12 7
-26 21 -24 37 6 12 22 14 23 25 8 15 -21 27 -5 36 52 l6 40 2 -37 c1 -42 14
-49 32 -17 8 16 13 18 19 9 6 -10 14 -6 34 13 22 22 26 23 26 8 0 -29 12 -32
36 -10 21 20 24 20 30 5 9 -23 23 -20 36 10 9 20 17 24 35 19 29 -7 30 11 2
41 l-21 22 21 7 c17 5 31 30 36 65 0 3 6 15 13 27 8 15 9 22 1 25 -16 5 39 68
70 80 15 6 21 12 14 15 -7 3 -13 9 -13 14 0 12 37 12 45 -1 9 -15 37 -12 78 9
42 22 42 22 22 -46 -10 -35 -21 -52 -35 -56 -21 -5 -27 -36 -10 -53 6 -6 6
-23 -1 -47 -12 -46 -4 -77 21 -77 22 0 45 31 55 73 4 15 13 27 20 27 24 0 36
25 21 46 -12 17 -9 36 27 152 22 72 42 132 44 132 3 0 36 -28 74 -62z m793 35
c4 -4 19 -7 34 -8 25 0 27 -3 29 -50 4 -65 -16 -89 -76 -92 -36 -2 -49 2 -69
22 -19 19 -22 29 -14 37 6 6 8 24 5 40 -5 24 -2 30 16 35 11 3 21 9 21 14 0
11 44 12 54 2z m294 -17 c7 -4 12 -12 12 -17 0 -6 10 -19 21 -28 16 -12 20
-23 15 -39 -4 -12 -12 -22 -17 -22 -5 0 -9 -7 -9 -16 0 -8 -17 -22 -37 -30
-31 -13 -39 -14 -47 -2 -6 7 -23 19 -38 25 -24 11 -28 19 -28 53 0 29 4 40 15
40 8 0 15 6 15 13 0 32 61 46 98 23z m-1582 -114 c-12 -11 -18 7 -10 30 l8 23
4 -23 c2 -13 1 -26 -2 -30z m614 2 c11 -12 10 -28 -4 -87 -9 -40 -27 -96 -40
-124 -22 -47 -31 -55 -106 -93 -76 -40 -83 -47 -111 -102 -19 -38 -39 -63 -57
-70 -15 -7 -46 -25 -68 -40 -37 -24 -45 -26 -78 -17 -21 6 -42 9 -48 7 -16 -6
393 -99 473 -108 41 -5 108 -5 150 0 82 9 487 102 471 108 -6 2 -27 -1 -48 -7
-32 -9 -40 -7 -68 13 -17 13 -48 31 -68 39 -29 12 -43 28 -67 75 -28 55 -35
62 -111 102 -75 38 -84 46 -106 93 -13 28 -31 84 -40 124 -14 59 -15 75 -4 87
24 30 37 18 44 -40 13 -111 82 -193 180 -214 68 -14 98 -39 121 -103 18 -52
35 -63 124 -87 24 -6 55 -23 69 -37 25 -25 25 -27 7 -34 -32 -12 -1 -10 72 5
190 40 364 38 475 -4 93 -36 94 -38 64 -114 -14 -35 -26 -81 -26 -101 l0 -37
-33 21 c-58 36 -161 54 -267 48 -111 -7 -227 -29 -515 -100 -202 -49 -215 -51
-350 -51 -137 0 -145 1 -399 63 -278 66 -415 91 -511 91 -75 0 -178 -24 -222
-51 l-33 -21 0 42 c0 24 -11 68 -27 102 -25 57 -26 59 -7 73 94 72 316 88 547
39 72 -15 104 -17 74 -5 -17 6 -16 9 6 33 14 15 44 32 68 38 89 23 99 30 132
99 34 70 36 71 142 100 77 20 139 105 151 205 7 58 20 70 44 40z m-650 -23
c16 -30 12 -36 -10 -16 -21 19 -26 35 -10 35 5 0 14 -9 20 -19z m1427 -13 c-3
-7 -5 -2 -5 12 0 14 2 19 5 13 2 -7 2 -19 0 -25z m20 10 c-3 -8 -6 -5 -6 6 -1
11 2 17 5 13 3 -3 4 -12 1 -19z m-1367 -13 c-14 -16 -40 -20 -40 -6 0 10 17
19 39 20 11 1 11 -2 1 -14z m1468 -13 c11 -11 16 -27 12 -46 l-5 -28 -19 21
c-15 16 -17 24 -8 33 8 8 7 15 -6 24 -10 8 -12 13 -4 14 6 0 20 -8 30 -18z
m-164 -1 c4 -5 -4 -7 -16 -4 -19 4 -20 3 -8 -6 9 -7 10 -11 3 -11 -15 0 -25
15 -16 24 9 9 31 7 37 -3z m-1684 -47 c0 -21 -12 -44 -22 -44 -7 0 -7 4 0 13
7 8 7 18 2 27 -6 8 -10 24 -10 35 1 20 1 20 15 1 8 -11 15 -25 15 -32z m1804
37 c3 -4 -6 -6 -19 -3 -14 2 -25 6 -25 8 0 8 39 4 44 -5z m-1524 -17 c0 -8 -4
-12 -10 -9 -5 3 -10 10 -10 16 0 5 5 9 10 9 6 0 10 -7 10 -16z m1706 -1 c19
-12 23 -23 21 -52 -3 -52 -26 -71 -76 -68 -52 3 -73 28 -64 77 3 19 9 40 14
45 12 16 80 15 105 -2z m-2142 1 c20 -8 42 -44 27 -44 -5 0 -23 11 -38 25 -27
23 -22 32 11 19z m205 -31 c0 -34 -1 -36 -11 -16 -6 12 -8 29 -5 37 11 27 17
18 16 -21z m60 -16 c1 -10 -3 -15 -9 -12 -5 3 -10 21 -9 38 0 27 2 29 9 12 5
-11 9 -28 9 -38z m268 36 c-9 -9 -20 -13 -24 -9 -4 4 -1 11 7 16 25 16 35 11
17 -7z m-67 -3 c0 -5 -2 -10 -4 -10 -3 0 -8 5 -11 10 -3 6 -1 10 4 10 6 0 11
-4 11 -10z m30 0 c0 -5 -5 -10 -11 -10 -5 0 -7 5 -4 10 3 6 8 10 11 10 2 0 4
-4 4 -10z m-180 -32 c-1 -26 -3 -30 -10 -16 -6 9 -7 23 -4 32 9 25 14 19 14
-16z m93 15 c-8 -3 -11 -15 -7 -31 4 -23 4 -25 -6 -9 -14 21 -6 47 12 46 10 0
10 -2 1 -6z m1455 -54 c-7 -74 -24 -81 -23 -9 0 44 4 60 14 60 10 0 12 -12 9
-51z m-1888 31 c-20 -13 -57 -13 -65 0 -4 6 11 10 37 10 31 0 39 -3 28 -10z
m264 -5 c3 -9 0 -15 -9 -15 -9 0 -12 6 -9 15 4 8 7 15 9 15 2 0 5 -7 9 -15z
m226 5 c0 -5 -2 -10 -4 -10 -3 0 -8 5 -11 10 -3 6 -1 10 4 10 6 0 11 -4 11
-10z m-90 -15 c0 -8 -4 -15 -10 -15 -5 0 -10 7 -10 15 0 8 5 15 10 15 6 0 10
-7 10 -15z m80 -15 c0 -14 -28 -1 -34 16 -4 12 -2 12 14 4 11 -6 20 -15 20
-20z m75 20 c-3 -5 -13 -10 -21 -10 -8 0 -12 5 -9 10 3 6 13 10 21 10 8 0 12
-4 9 -10z m665 -180 c13 -25 41 -54 79 -79 50 -34 62 -48 75 -89 13 -39 24
-52 54 -67 l37 -18 -45 -14 c-25 -7 -65 -14 -90 -16 -41 -2 -45 0 -48 23 -8
76 -16 95 -58 140 -26 27 -47 61 -51 81 l-7 34 -9 -35 c-5 -19 -28 -56 -52
-81 -41 -44 -49 -63 -57 -139 -3 -23 -7 -25 -48 -23 -25 2 -65 9 -90 16 l-45
13 41 22 c35 18 43 28 53 66 10 39 19 51 72 87 70 47 98 97 120 207 l13 66 18
-77 c10 -42 27 -95 38 -117z m731 111 c-23 -24 -61 -47 -61 -37 0 3 24 74 36
106 4 12 11 9 28 -13 l23 -28 -26 -28z m-1901 61 c0 -14 -39 -46 -47 -39 -3 4
2 16 12 27 19 21 35 26 35 12z m60 -2 c0 -12 -42 -51 -48 -45 -7 7 27 55 38
55 6 0 10 -4 10 -10z m1657 -6 c-3 -3 -12 -4 -19 -1 -8 3 -5 6 6 6 11 1 17 -2
13 -5z m-1597 -14 c0 -5 -9 -14 -20 -20 -22 -12 -27 -1 -8 18 14 14 28 16 28
2z m44 -14 c-6 -15 -34 -30 -41 -22 -5 5 26 36 37 36 5 0 7 -6 4 -14z m56 4
c0 -9 -32 -30 -46 -30 -4 0 1 9 11 20 19 21 35 26 35 10z m160 -10 c0 -5 -2
-10 -4 -10 -3 0 -8 5 -11 10 -3 6 -1 10 4 10 6 0 11 -4 11 -10z m60 -6 c0 -8
-4 -12 -10 -9 -5 3 -10 10 -10 16 0 5 5 9 10 9 6 0 10 -7 10 -16z m54 1 c-4
-8 -13 -15 -21 -15 -13 0 -13 3 -3 15 7 8 16 15 21 15 5 0 6 -7 3 -15z m-228
-10 c-26 -19 -42 -19 -26 0 7 8 20 15 29 15 13 -1 13 -3 -3 -15z m150 -12 c-7
-7 -26 7 -26 19 0 6 6 6 15 -2 9 -7 13 -15 11 -17z m1561 21 c-3 -3 -12 -4
-19 -1 -8 3 -5 6 6 6 11 1 17 -2 13 -5z m-1617 -14 c0 -5 -5 -10 -11 -10 -5 0
-7 5 -4 10 3 6 8 10 11 10 2 0 4 -4 4 -10z m-30 -9 c0 -10 -24 -21 -43 -21 -7
0 -3 7 7 15 22 17 36 19 36 6z m1625 -1 c-3 -5 -12 -10 -18 -10 -7 0 -6 4 3
10 19 12 23 12 15 0z m-1705 -26 l25 -14 -29 2 c-16 2 -31 9 -34 16 -5 16 7
15 38 -4z m125 6 c4 -6 -5 -10 -20 -10 -15 0 -24 4 -20 10 3 6 12 10 20 10 8
0 17 -4 20 -10z m1371 -5 c-11 -8 -25 -15 -30 -15 -6 1 0 7 14 15 32 19 40 18
16 0z m-1560 -20 c19 -14 19 -14 -2 -15 -12 0 -27 7 -34 15 -17 20 9 21 36 0z
m284 0 c11 -13 10 -14 -4 -9 -9 3 -16 10 -16 15 0 13 6 11 20 -6z m-91 -37
c-8 -14 -14 -18 -17 -10 -4 13 17 46 25 38 3 -2 -1 -15 -8 -28z m52 -5 c-9
-16 -10 -14 -11 12 0 21 3 26 11 18 8 -8 8 -16 0 -30z m1529 18 c15 -29 -4
-34 -26 -8 -19 21 -19 21 0 7 18 -14 19 -13 13 3 -9 23 0 22 13 -2z m83 12
c-7 -2 -21 -2 -30 0 -10 3 -4 5 12 5 17 0 24 -2 18 -5z m-1928 -14 c11 -17 0
-20 -21 -4 -17 13 -17 14 -2 15 9 0 20 -5 23 -11z m190 -27 c-10 -10 -16 -12
-13 -7 3 6 8 19 13 30 5 14 9 16 12 7 3 -8 -3 -21 -12 -30z m-35 16 c0 -7 -7
-22 -15 -32 -12 -16 -15 -17 -15 -4 0 24 11 48 21 48 5 0 9 -6 9 -12z m-120
-8 c0 -5 -4 -10 -10 -10 -5 0 -10 5 -10 10 0 6 5 10 10 10 6 0 10 -4 10 -10z
m-86 -19 c17 -19 17 -19 -3 -14 -11 3 -26 11 -32 19 -19 23 15 18 35 -5z m139
-4 c3 -8 1 -20 -4 -28 -6 -10 -9 -7 -9 14 0 29 5 35 13 14z m-49 -41 c-3 -9
-10 -16 -15 -16 -14 0 -11 28 4 33 16 6 19 3 11 -17z m-68 -24 c-14 -14 -16
-14 -16 -1 0 20 23 44 29 28 2 -6 -4 -18 -13 -27z m-60 13 c-27 -21 -53 -20
-36 0 7 8 22 15 34 15 21 -1 21 -1 2 -15z m-86 -350 c0 -76 38 -98 122 -73 54
16 72 -1 38 -37 -28 -30 -117 -59 -225 -74 -158 -22 -261 -8 -316 45 -67 64
-11 115 85 78 17 -7 17 -6 1 25 -9 18 -15 34 -13 36 2 2 26 -1 53 -6 65 -12
139 -3 195 26 25 12 48 23 53 24 4 0 7 -19 7 -44z m2415 15 c52 -24 160 -33
219 -17 25 7 28 6 21 -10 -20 -50 -19 -53 14 -42 39 14 77 5 91 -21 17 -31
-39 -86 -108 -106 -98 -29 -324 -4 -422 46 -73 37 -72 87 1 61 77 -27 119 0
119 75 0 25 3 44 8 42 4 -2 29 -15 57 -28z"/>
<path d="M3637 3643 c-4 -3 -7 -12 -7 -20 0 -16 56 -18 66 -2 12 20 -42 40
-59 22z"/>
<path d="M3440 3250 c-9 -6 -10 -10 -3 -10 6 0 15 5 18 10 8 12 4 12 -15 0z"/>
<path d="M3379 3203 c-32 -5 -89 -64 -113 -117 -15 -33 -15 -38 -2 -27 9 8 16
19 16 25 0 21 51 88 64 83 6 -3 25 6 41 19 17 13 28 23 25 22 -3 0 -17 -3 -31
-5z"/>
<path d="M3302 3083 c-20 -51 -42 -137 -33 -128 5 6 11 19 14 30 4 17 5 16 6
-5 1 -14 9 -36 17 -50 l15 -25 -7 25 c-11 39 -13 122 -3 149 5 13 8 26 6 28
-3 2 -9 -9 -15 -24z"/>
<path d="M3240 3000 c-9 -21 -10 -34 -3 -41 7 -7 12 2 16 27 8 48 3 53 -13 14z"/>
<path d="M3827 2191 c11 -19 36 -40 54 -48 l33 -14 -24 26 c-24 26 -36 33 -25
15 3 -5 2 -10 -4 -10 -5 0 -12 9 -16 19 -3 11 -13 25 -23 33 -12 10 -11 5 5
-21z"/>
<path d="M3631 2255 c0 -23 28 -59 58 -71 l32 -14 -23 29 c-18 21 -24 24 -27
12 -2 -10 -9 -4 -22 19 -10 19 -18 31 -18 25z"/>
<path d="M2628 1783 c-9 -3 -20 -13 -23 -24 -3 -10 -8 -28 -11 -39 -5 -18 -1
-20 39 -20 24 0 46 3 50 6 3 3 -4 22 -15 42 -24 43 -19 39 -40 35z"/>
<path d="M3383 932 c-8 -5 -9 -13 -3 -22 23 -35 8 -42 -23 -12 -22 21 -39 30
-50 26 -13 -5 -14 -10 -6 -26 6 -11 9 -36 7 -54 -3 -22 0 -34 8 -34 8 0 10 13
7 43 l-6 42 35 -32 c19 -18 38 -33 43 -33 6 0 9 24 7 52 -2 35 0 48 6 39 7 -9
12 -10 16 -2 17 26 28 8 24 -39 -3 -45 -1 -50 17 -50 18 0 20 5 17 50 -4 46 9
68 21 38 3 -8 6 -6 6 5 1 14 -8 17 -56 17 -32 0 -63 -4 -70 -8z"/>
<path d="M3533 893 c-1 -26 -8 -50 -15 -55 -7 -4 -8 -8 -3 -8 6 0 21 -3 35 -6
18 -4 21 -3 11 4 -9 6 -11 17 -6 28 6 17 8 16 17 -7 5 -15 18 -29 28 -32 18
-5 19 -3 5 23 -10 18 -11 31 -5 35 14 9 12 45 -2 49 -60 19 -63 17 -65 -31z
m52 7 c0 -7 -6 -15 -12 -17 -8 -3 -13 4 -13 17 0 13 5 20 13 18 6 -3 12 -11
12 -18z"/>
<path d="M1542 923 c-21 -8 -33 -50 -22 -78 21 -55 110 -35 110 25 0 47 -41
72 -88 53z m46 -15 c14 -14 16 -74 3 -82 -30 -19 -65 50 -41 79 15 18 22 19
38 3z"/>
<path d="M1645 875 c0 -49 2 -55 21 -55 17 0 20 5 17 28 l-4 27 16 -27 c9 -16
24 -28 36 -28 l20 0 -20 26 c-16 20 -18 30 -10 40 20 24 2 44 -38 44 l-38 0 0
-55z m55 31 c0 -8 -4 -18 -10 -21 -5 -3 -10 3 -10 14 0 12 5 21 10 21 6 0 10
-6 10 -14z"/>
<path d="M1816 904 c-20 -19 -21 -68 -2 -83 24 -20 88 -10 97 15 6 18 3 23
-15 26 -19 4 -22 1 -18 -20 4 -20 1 -23 -19 -20 -21 3 -24 8 -24 43 0 35 3 40
24 43 15 3 30 -3 38 -14 12 -17 13 -16 13 4 0 19 -6 22 -39 22 -23 0 -46 -7
-55 -16z"/>
<path d="M3252 913 c-8 -3 -10 -9 -4 -16 17 -21 20 -66 6 -78 -23 -19 -42 -3
-49 40 -5 32 -11 41 -27 41 -15 0 -18 -3 -11 -12 6 -7 13 -30 17 -50 8 -43 36
-57 69 -35 18 12 22 24 22 66 0 28 -2 51 -5 50 -3 0 -11 -3 -18 -6z"/>
<path d="M3646 891 c10 -20 13 -42 9 -61 -5 -23 -3 -30 9 -30 9 0 16 8 16 17
0 9 14 32 32 50 18 18 26 33 19 33 -7 0 -21 -10 -32 -22 -16 -20 -19 -21 -20
-5 -1 9 -2 23 -3 30 0 6 -11 13 -23 15 -21 3 -22 2 -7 -27z"/>
<path d="M1475 905 c-5 -2 -22 -6 -36 -9 -27 -6 -27 -6 -12 -47 8 -23 11 -49
8 -57 -4 -10 0 -12 11 -8 8 3 21 6 27 6 8 0 7 3 -1 9 -17 10 -11 47 6 44 7 -2
12 5 12 14 0 13 -3 14 -12 5 -18 -18 -28 -15 -28 9 0 17 5 20 25 17 17 -4 25
-1 25 8 0 14 -5 16 -25 9z"/>
<path d="M1947 882 c-31 -34 -16 -93 23 -91 10 0 11 2 3 6 -18 7 -16 68 2 83
38 31 61 -23 29 -68 -9 -13 -14 -26 -11 -29 10 -9 57 45 57 65 0 46 -72 69
-103 34z"/>
<path d="M2063 840 c0 -22 -6 -47 -13 -55 -9 -11 -3 -15 36 -21 42 -6 50 -4
66 16 23 28 23 67 1 78 -10 5 -34 12 -53 16 l-35 6 -2 -40z m75 -13 c4 -33
-13 -57 -40 -57 -18 0 -19 4 -13 37 9 48 13 55 33 51 10 -2 18 -15 20 -31z"/>
<path d="M3067 862 c-35 -39 -13 -92 38 -92 39 0 65 22 65 55 0 50 -69 75
-103 37z m61 -4 c7 -7 12 -27 12 -45 0 -25 -4 -33 -18 -33 -26 0 -42 20 -42
50 0 40 23 53 48 28z"/>
<path d="M2956 845 c-43 -43 1 -117 58 -96 33 13 34 23 2 15 -19 -4 -28 0 -41
20 -28 43 5 83 47 57 16 -10 19 -10 16 1 -7 20 -63 22 -82 3z"/>
<path d="M2227 788 c-41 -50 -44 -58 -22 -58 8 0 14 6 13 13 -2 6 6 12 17 12
11 0 20 -7 20 -15 0 -16 14 -30 31 -30 10 0 0 55 -19 114 -2 5 -20 -11 -40
-36z m28 -8 c3 -5 -1 -10 -10 -10 -9 0 -13 5 -10 10 3 6 8 10 10 10 2 0 7 -4
10 -10z"/>
<path d="M2859 803 c-10 -28 -11 -28 -27 -8 -13 16 -24 19 -52 15 -49 -8 -56
-15 -64 -52 l-7 -33 -28 34 c-36 44 -52 35 -40 -21 6 -23 8 -47 5 -54 -3 -8 2
-10 16 -6 11 2 15 8 10 11 -11 7 -28 61 -19 61 3 0 16 -17 28 -37 l23 -38 11
37 c14 51 28 60 23 15 -4 -34 -2 -38 16 -35 13 2 20 9 17 18 -13 56 -13 90 1
90 21 0 58 -43 58 -68 0 -15 6 -22 18 -22 15 0 18 6 14 29 -2 17 3 44 11 60 9
17 11 31 6 31 -5 0 -14 -12 -20 -27z"/>
<path d="M2335 786 c0 -17 -4 -43 -8 -58 -6 -21 -4 -28 7 -28 9 0 12 7 10 18
-3 9 -1 27 3 40 8 20 10 19 33 -23 14 -25 27 -45 31 -45 4 0 9 18 13 39 3 22
9 46 12 55 4 10 1 16 -10 16 -10 0 -13 -6 -10 -15 4 -8 3 -23 -1 -32 -5 -15
-10 -12 -25 18 -26 49 -55 57 -55 15z"/>
<path d="M2458 783 c15 -6 16 -75 0 -91 -9 -9 -1 -12 38 -12 58 0 74 12 74 57
0 39 -22 53 -82 52 -24 0 -37 -3 -30 -6z m83 -27 c14 -30 -3 -66 -31 -66 -16
0 -20 7 -20 38 0 21 3 42 7 45 13 14 34 6 44 -17z"/>
</g>
</svg>
